<svg width="173" height="57" viewBox="0 0 173 57" fill="none" xmlns="http://www.w3.org/2000/svg">
<g clip-path="url(#clip0_5425_19872)">
<line x1="28" y1="31.75" x2="149" y2="31.75" stroke="url(#paint0_linear_5425_19872)" stroke-width="4.5"/>
<path d="M43.669 37.78C42.6797 38.9747 41.513 39.8893 40.169 40.524C38.825 41.14 37.3223 41.448 35.661 41.448C34.1677 41.448 32.777 41.1773 31.489 40.636C30.2197 40.0947 29.1183 39.3573 28.185 38.424C27.2517 37.4907 26.5143 36.3893 25.973 35.12C25.4317 33.832 25.161 32.4507 25.161 30.976C25.161 29.5013 25.4317 28.1293 25.973 26.86C26.5143 25.572 27.2517 24.4613 28.185 23.528C29.1183 22.5947 30.2197 21.8573 31.489 21.316C32.777 20.7747 34.1677 20.504 35.661 20.504C37.2663 20.504 38.6757 20.784 39.889 21.344C41.121 21.904 42.213 22.716 43.165 23.78L40.505 26.356C39.9077 25.6653 39.217 25.1147 38.433 24.704C37.6677 24.2933 36.753 24.088 35.689 24.088C34.7557 24.088 33.8783 24.256 33.057 24.592C32.2357 24.9093 31.517 25.3667 30.901 25.964C30.3037 26.5613 29.8277 27.2893 29.473 28.148C29.1183 28.988 28.941 29.9307 28.941 30.976C28.941 32.0213 29.1183 32.9733 29.473 33.832C29.8277 34.672 30.3037 35.3907 30.901 35.988C31.517 36.5853 32.2357 37.052 33.057 37.388C33.8783 37.7053 34.7557 37.864 35.689 37.864C36.809 37.864 37.7983 37.64 38.657 37.192C39.5343 36.7253 40.309 36.072 40.981 35.232L43.669 37.78ZM45.9821 27.28H49.4261V29.184H49.6501C49.8181 28.848 50.0421 28.54 50.3221 28.26C50.6021 27.98 50.9101 27.7373 51.2461 27.532C51.6007 27.3267 51.9741 27.168 52.3661 27.056C52.7767 26.944 53.1781 26.888 53.5701 26.888C54.0554 26.888 54.4661 26.9347 54.8021 27.028C55.1567 27.1213 55.4554 27.2427 55.6981 27.392L54.7181 30.724C54.4941 30.612 54.2421 30.528 53.9621 30.472C53.7007 30.3973 53.3741 30.36 52.9821 30.36C52.4781 30.36 52.0207 30.4627 51.6101 30.668C51.1994 30.8547 50.8447 31.1253 50.5461 31.48C50.2661 31.8347 50.0421 32.2547 49.8741 32.74C49.7247 33.2067 49.6501 33.72 49.6501 34.28V41H45.9821V27.28ZM63.0328 26.832C64.0968 26.832 65.0674 27.0187 65.9448 27.392C66.8408 27.7467 67.6061 28.2507 68.2408 28.904C68.8941 29.5387 69.3981 30.304 69.7527 31.2C70.1261 32.096 70.3128 33.076 70.3128 34.14C70.3128 35.204 70.1261 36.184 69.7527 37.08C69.3981 37.976 68.8941 38.7507 68.2408 39.404C67.6061 40.0387 66.8408 40.5427 65.9448 40.916C65.0674 41.2707 64.0968 41.448 63.0328 41.448C61.9688 41.448 60.9888 41.2707 60.0928 40.916C59.2154 40.5427 58.4501 40.0387 57.7968 39.404C57.1621 38.7507 56.6581 37.976 56.2848 37.08C55.9301 36.184 55.7528 35.204 55.7528 34.14C55.7528 33.076 55.9301 32.096 56.2848 31.2C56.6581 30.304 57.1621 29.5387 57.7968 28.904C58.4501 28.2507 59.2154 27.7467 60.0928 27.392C60.9888 27.0187 61.9688 26.832 63.0328 26.832ZM63.0328 38.06C63.4994 38.06 63.9474 37.976 64.3768 37.808C64.8248 37.6213 65.2168 37.36 65.5528 37.024C65.8888 36.688 66.1501 36.2773 66.3368 35.792C66.5421 35.3067 66.6448 34.756 66.6448 34.14C66.6448 33.524 66.5421 32.9733 66.3368 32.488C66.1501 32.0027 65.8888 31.592 65.5528 31.256C65.2168 30.92 64.8248 30.668 64.3768 30.5C63.9474 30.3133 63.4994 30.22 63.0328 30.22C62.5474 30.22 62.0901 30.3133 61.6608 30.5C61.2314 30.668 60.8488 30.92 60.5128 31.256C60.1768 31.592 59.9061 32.0027 59.7008 32.488C59.5141 32.9733 59.4208 33.524 59.4208 34.14C59.4208 34.756 59.5141 35.3067 59.7008 35.792C59.9061 36.2773 60.1768 36.688 60.5128 37.024C60.8488 37.36 61.2314 37.6213 61.6608 37.808C62.0901 37.976 62.5474 38.06 63.0328 38.06ZM77.9648 41.448C77.0688 41.448 76.2662 41.336 75.5568 41.112C74.8662 40.888 74.2595 40.5987 73.7368 40.244C73.2328 39.8707 72.8035 39.4507 72.4488 38.984C72.0942 38.4987 71.8235 38.0133 71.6368 37.528L74.9128 36.128C75.2302 36.8373 75.6502 37.3693 76.1728 37.724C76.7142 38.06 77.3115 38.228 77.9648 38.228C78.6368 38.228 79.1688 38.1067 79.5608 37.864C79.9528 37.6213 80.1488 37.332 80.1488 36.996C80.1488 36.6227 79.9808 36.324 79.6448 36.1C79.3275 35.8573 78.7675 35.6427 77.9648 35.456L76.0328 35.036C75.6035 34.9427 75.1555 34.7933 74.6888 34.588C74.2408 34.3827 73.8302 34.1213 73.4568 33.804C73.0835 33.4867 72.7755 33.104 72.5328 32.656C72.2902 32.208 72.1688 31.6853 72.1688 31.088C72.1688 30.416 72.3088 29.8187 72.5888 29.296C72.8875 28.7733 73.2888 28.3347 73.7928 27.98C74.2968 27.6067 74.8848 27.3267 75.5568 27.14C76.2475 26.9347 76.9848 26.832 77.7688 26.832C79.0755 26.832 80.2422 27.0933 81.2688 27.616C82.2955 28.12 83.0515 28.932 83.5368 30.052L80.3728 31.34C80.1115 30.7987 79.7288 30.4067 79.2248 30.164C78.7208 29.9213 78.2168 29.8 77.7128 29.8C77.1902 29.8 76.7328 29.912 76.3408 30.136C75.9488 30.3413 75.7528 30.612 75.7528 30.948C75.7528 31.2653 75.9115 31.5173 76.2288 31.704C76.5648 31.8907 77.0128 32.0587 77.5728 32.208L79.6728 32.712C81.0728 33.048 82.1088 33.5893 82.7808 34.336C83.4715 35.064 83.8168 35.932 83.8168 36.94C83.8168 37.5373 83.6768 38.1067 83.3968 38.648C83.1168 39.1893 82.7155 39.6747 82.1928 40.104C81.6888 40.5147 81.0728 40.8413 80.3448 41.084C79.6355 41.3267 78.8422 41.448 77.9648 41.448ZM91.5 41.448C90.604 41.448 89.8013 41.336 89.092 41.112C88.4013 40.888 87.7947 40.5987 87.272 40.244C86.768 39.8707 86.3387 39.4507 85.984 38.984C85.6293 38.4987 85.3587 38.0133 85.172 37.528L88.448 36.128C88.7653 36.8373 89.1853 37.3693 89.708 37.724C90.2493 38.06 90.8467 38.228 91.5 38.228C92.172 38.228 92.704 38.1067 93.096 37.864C93.488 37.6213 93.684 37.332 93.684 36.996C93.684 36.6227 93.516 36.324 93.18 36.1C92.8627 35.8573 92.3027 35.6427 91.5 35.456L89.568 35.036C89.1387 34.9427 88.6907 34.7933 88.224 34.588C87.776 34.3827 87.3653 34.1213 86.992 33.804C86.6187 33.4867 86.3107 33.104 86.068 32.656C85.8253 32.208 85.704 31.6853 85.704 31.088C85.704 30.416 85.844 29.8187 86.124 29.296C86.4227 28.7733 86.824 28.3347 87.328 27.98C87.832 27.6067 88.42 27.3267 89.092 27.14C89.7827 26.9347 90.52 26.832 91.304 26.832C92.6107 26.832 93.7773 27.0933 94.804 27.616C95.8307 28.12 96.5867 28.932 97.072 30.052L93.908 31.34C93.6467 30.7987 93.264 30.4067 92.76 30.164C92.256 29.9213 91.752 29.8 91.248 29.8C90.7253 29.8 90.268 29.912 89.876 30.136C89.484 30.3413 89.288 30.612 89.288 30.948C89.288 31.2653 89.4467 31.5173 89.764 31.704C90.1 31.8907 90.548 32.0587 91.108 32.208L93.208 32.712C94.608 33.048 95.644 33.5893 96.316 34.336C97.0067 35.064 97.352 35.932 97.352 36.94C97.352 37.5373 97.212 38.1067 96.932 38.648C96.652 39.1893 96.2507 39.6747 95.728 40.104C95.224 40.5147 94.608 40.8413 93.88 41.084C93.1707 41.3267 92.3773 41.448 91.5 41.448ZM99.6032 20.952H103.271V26.972L103.047 28.932H103.271C103.607 28.3533 104.13 27.8587 104.839 27.448C105.548 27.0373 106.426 26.832 107.471 26.832C108.348 26.832 109.179 27.0187 109.963 27.392C110.766 27.7467 111.466 28.2507 112.063 28.904C112.679 29.5387 113.164 30.304 113.519 31.2C113.874 32.096 114.051 33.076 114.051 34.14C114.051 35.204 113.874 36.184 113.519 37.08C113.164 37.976 112.679 38.7507 112.063 39.404C111.466 40.0387 110.766 40.5427 109.963 40.916C109.179 41.2707 108.348 41.448 107.471 41.448C106.426 41.448 105.548 41.2427 104.839 40.832C104.13 40.4213 103.607 39.9267 103.271 39.348H103.047V41H99.6032V20.952ZM106.715 38.06C107.2 38.06 107.658 37.9667 108.087 37.78C108.535 37.5933 108.927 37.332 109.263 36.996C109.599 36.66 109.87 36.2493 110.075 35.764C110.28 35.2787 110.383 34.7373 110.383 34.14C110.383 33.5427 110.28 33.0013 110.075 32.516C109.87 32.0307 109.599 31.62 109.263 31.284C108.927 30.948 108.535 30.6867 108.087 30.5C107.658 30.3133 107.2 30.22 106.715 30.22C106.23 30.22 105.763 30.3133 105.315 30.5C104.886 30.668 104.503 30.92 104.167 31.256C103.831 31.592 103.56 32.0027 103.355 32.488C103.15 32.9733 103.047 33.524 103.047 34.14C103.047 34.756 103.15 35.3067 103.355 35.792C103.56 36.2773 103.831 36.688 104.167 37.024C104.503 37.36 104.886 37.6213 105.315 37.808C105.763 37.976 106.23 38.06 106.715 38.06ZM129.384 37.696C128.75 38.816 127.891 39.7213 126.808 40.412C125.744 41.1027 124.438 41.448 122.888 41.448C121.843 41.448 120.872 41.2707 119.976 40.916C119.099 40.5427 118.334 40.0293 117.68 39.376C117.027 38.7227 116.514 37.9573 116.14 37.08C115.786 36.184 115.608 35.204 115.608 34.14C115.608 33.1507 115.786 32.2173 116.14 31.34C116.495 30.444 116.99 29.6693 117.624 29.016C118.259 28.344 119.006 27.812 119.864 27.42C120.742 27.028 121.703 26.832 122.748 26.832C123.85 26.832 124.83 27.0187 125.688 27.392C126.547 27.7467 127.266 28.2507 127.844 28.904C128.423 29.5387 128.862 30.2947 129.16 31.172C129.459 32.0493 129.608 33.0013 129.608 34.028C129.608 34.1587 129.608 34.2707 129.608 34.364C129.59 34.476 129.58 34.5787 129.58 34.672C129.562 34.7653 129.552 34.868 129.552 34.98H119.22C119.295 35.54 119.444 36.0253 119.668 36.436C119.911 36.828 120.2 37.164 120.536 37.444C120.891 37.7053 121.274 37.9013 121.684 38.032C122.095 38.144 122.515 38.2 122.944 38.2C123.784 38.2 124.475 38.0133 125.016 37.64C125.576 37.248 126.015 36.7627 126.332 36.184L129.384 37.696ZM126.052 32.376C126.034 32.1333 125.95 31.8627 125.8 31.564C125.67 31.2653 125.464 30.9853 125.184 30.724C124.923 30.4627 124.587 30.248 124.176 30.08C123.784 29.912 123.308 29.828 122.748 29.828C121.964 29.828 121.274 30.052 120.676 30.5C120.079 30.948 119.659 31.5733 119.416 32.376H126.052ZM131.951 41V20.952H135.619V41H131.951ZM138.759 41V20.952H142.427V41H138.759Z" fill="black"/>
</g>
<defs>
<linearGradient id="paint0_linear_5425_19872" x1="28" y1="35.0001" x2="149" y2="35.0001" gradientUnits="userSpaceOnUse">
<stop stop-color="#F6C549"/>
<stop offset="0.234375" stop-color="#E65040"/>
<stop offset="0.505208" stop-color="#9688F2"/>
<stop offset="0.760417" stop-color="#5B89F7"/>
<stop offset="1" stop-color="#6AD991"/>
</linearGradient>
<clipPath id="clip0_5425_19872">
<rect width="125" height="34" fill="white" transform="translate(24 14)"/>
</clipPath>
</defs>
</svg>
